<?xml version="1.0" encoding="iso-8859-1"?>
<!-- Generator: Adobe Illustrator 16.0.0, SVG Export Plug-In . SVG Version: 6.00 Build 0)  -->
<!DOCTYPE svg PUBLIC "-//W3C//DTD SVG 1.1//EN" "http://www.w3.org/Graphics/SVG/1.1/DTD/svg11.dtd">
<svg version="1.1" id="Camada_1" xmlns="http://www.w3.org/2000/svg" xmlns:xlink="http://www.w3.org/1999/xlink" x="0px" y="0px"
	 width="222.299px" height="209.996px" viewBox="25.138 10 222.299 209.996"
	 style="enable-background:new 25.138 10 222.299 209.996;" xml:space="preserve">
<rect x="0" y="10" style="fill:none;" width="281.57" height="288.398"/>
<g style="enable-background:new    ;">
	<path style="fill:#323232;" d="M62.339,15.394h39.6v137.701c0,58.201-28.2,66.901-57,66.901c-8.1,0-15.3-1.2-19.8-3l3.3-33.001
		c3.9,1.2,7.8,1.5,12.9,1.5c11.4,0,21-4.5,21-30.6V15.394z"/>
	<path style="fill:#323232;" d="M134.036,18.394c11.1-2.4,26.1-3.9,41.101-3.9c23.399,0,41.7,3.3,54.9,15.6
		c12,10.5,17.4,27.3,17.4,44.4c0,21.9-6.601,37.201-17.101,48.601c-12.601,13.2-33,19.2-49.2,19.2c-2.7,0-5.4,0-7.801,0v75.301
		h-39.3V18.394z M173.336,110.195c1.801,0.6,3.9,0.6,6.301,0.6c19.8,0,28.8-14.1,28.8-33c0-17.7-7.2-31.5-25.5-31.5
		c-3.601,0-7.2,0.6-9.601,1.5V110.195z"/>
</g>
</svg>
